<?xml version="1.0" encoding="UTF-8" ?>
<!DOCTYPE svg PUBLIC "-//W3C//DTD SVG 1.1//EN" "http://www.w3.org/Graphics/SVG/1.1/DTD/svg11.dtd">
<svg width="1024pt" height="1024pt" viewBox="0 0 1024 1024" version="1.1" xmlns="http://www.w3.org/2000/svg">
    <g id="#ffffffff">
        <path fill="#ffffff" opacity="1.00"
              d=" M 271.33 98.08 C 276.17 97.28 281.11 97.69 286.00 97.62 C 438.33 97.61 590.67 97.65 743.00 97.60 C 750.74 97.20 758.35 98.83 766.00 99.70 C 791.00 103.77 815.11 112.94 836.61 126.31 C 849.63 133.86 860.91 143.97 871.77 154.27 C 876.09 159.59 881.31 164.09 885.43 169.60 C 908.37 198.52 923.26 233.96 926.60 270.82 C 927.87 277.82 927.29 284.93 927.40 292.00 C 927.40 443.34 927.42 594.69 927.40 746.04 C 926.20 757.39 925.19 768.86 922.15 779.91 C 914.48 812.67 897.72 843.19 874.49 867.49 C 838.30 905.74 785.78 928.39 733.00 927.11 C 586.34 927.12 439.67 927.12 293.00 927.11 C 256.87 928.13 220.66 918.00 189.85 899.22 C 164.64 883.84 142.94 862.68 127.23 837.65 C 109.32 809.76 99.37 777.03 97.56 744.01 C 97.65 588.66 97.55 433.31 97.61 277.96 C 98.44 268.23 99.86 258.56 101.74 248.98 C 108.57 217.28 123.79 187.50 145.07 163.08 C 149.65 158.96 153.04 153.68 157.97 149.96 C 167.89 140.31 178.87 131.68 190.89 124.80 C 215.27 110.04 242.97 100.88 271.33 98.08 M 390.85 265.84 C 381.51 273.75 375.79 284.96 370.99 296.00 C 365.70 306.99 359.79 317.70 354.84 328.86 C 351.57 337.49 346.34 345.18 342.56 353.57 C 339.60 362.35 334.06 369.89 330.32 378.33 C 319.23 402.24 307.17 425.71 295.21 449.20 C 288.66 463.16 281.48 476.83 274.66 490.67 C 267.80 504.11 261.51 517.85 253.98 530.94 C 254.37 531.97 254.78 533.01 255.23 534.04 C 263.09 531.46 270.24 527.24 277.67 523.67 C 290.80 517.39 303.41 509.88 317.29 505.26 C 329.89 500.84 342.25 495.67 355.16 492.18 C 362.12 490.40 364.44 483.01 367.33 477.33 C 373.83 464.96 379.11 452.01 385.68 439.67 C 394.45 421.13 403.29 402.61 411.64 383.86 C 414.05 392.77 416.67 401.63 419.61 410.38 C 425.69 430.58 432.12 450.67 438.10 470.90 C 438.23 472.45 439.64 473.04 441.03 472.97 C 454.86 473.96 468.25 469.22 482.02 468.94 C 493.36 467.66 504.85 467.88 516.09 465.76 C 514.85 460.00 512.86 454.45 511.23 448.79 C 497.56 403.18 484.39 357.43 471.31 311.64 C 468.27 302.59 466.49 293.11 462.68 284.32 C 459.96 277.87 455.48 272.35 450.55 267.46 C 445.33 263.06 439.75 258.39 432.80 257.25 C 428.22 256.67 423.60 257.09 419.00 256.96 C 408.98 256.47 398.86 259.88 390.85 265.84 M 588.06 459.06 C 587.89 501.37 588.09 543.69 587.96 586.01 C 589.01 603.11 590.87 620.32 596.38 636.64 C 612.43 682.98 657.12 717.74 705.98 721.92 C 714.61 722.19 723.26 722.35 731.88 721.79 C 745.76 720.23 759.46 716.79 772.29 711.26 C 788.42 704.38 802.36 692.81 812.82 678.82 C 823.08 664.63 828.88 647.64 831.49 630.43 C 832.42 625.13 831.59 619.72 832.44 614.41 C 833.53 607.32 832.82 600.14 833.00 593.00 C 832.96 548.36 833.07 503.71 832.95 459.06 C 824.95 458.79 816.90 459.53 808.97 458.15 C 797.31 457.79 785.63 458.06 773.96 458.01 C 767.35 458.82 760.71 459.23 754.05 459.04 C 753.92 510.70 754.05 562.37 753.99 614.03 C 753.42 624.58 751.26 635.80 743.77 643.76 C 728.02 659.43 701.18 661.48 682.87 649.13 C 675.26 643.23 670.06 634.53 667.75 625.24 C 666.47 617.23 665.67 609.12 666.00 601.00 C 665.98 578.66 666.05 556.32 665.96 533.99 C 665.91 529.30 667.09 524.70 667.04 520.01 C 666.90 499.70 667.11 479.38 666.95 459.06 C 658.95 458.79 650.90 459.53 642.97 458.15 C 633.00 457.88 623.00 457.88 613.03 458.15 C 604.76 459.57 596.39 458.76 588.06 459.06 M 510.41 490.44 C 502.52 491.81 494.47 490.19 486.58 491.55 C 451.84 493.78 417.10 498.07 383.20 506.20 C 354.59 513.13 326.44 522.60 300.34 536.33 C 281.96 545.44 264.27 556.28 248.77 569.77 C 244.65 574.34 239.34 577.68 235.61 582.62 C 220.51 598.36 207.87 616.80 200.35 637.37 C 194.55 651.80 191.12 667.39 192.00 683.00 C 191.39 692.93 193.02 702.81 195.62 712.37 C 202.90 735.10 220.52 755.14 243.62 762.41 C 252.74 765.56 262.25 768.34 272.00 768.04 C 276.63 767.93 281.27 768.24 285.89 767.81 C 299.70 765.92 313.48 762.91 326.28 757.25 C 342.02 750.31 356.95 741.28 369.75 729.75 C 375.87 723.54 382.18 717.52 388.18 711.19 C 400.89 696.36 412.02 680.04 420.34 662.34 C 427.53 648.57 432.52 633.83 437.02 619.00 C 439.47 610.67 441.55 602.20 443.01 593.63 C 441.97 594.37 440.87 595.10 440.24 596.26 C 435.70 603.60 432.64 611.74 428.09 619.08 C 422.21 628.90 415.35 638.14 407.37 646.37 C 402.74 652.72 396.35 657.36 390.44 662.43 C 375.25 674.81 356.51 683.06 336.94 684.91 C 329.09 684.80 321.14 682.72 314.44 678.57 C 307.23 674.28 302.38 666.65 300.41 658.61 C 298.98 647.95 300.33 636.99 303.94 626.87 C 309.02 611.86 318.92 599.10 329.94 587.95 C 335.91 582.92 341.11 577.04 347.57 572.58 C 368.75 555.62 393.24 543.40 418.29 533.28 C 429.21 529.22 440.10 524.59 451.70 522.91 C 454.83 538.99 459.21 554.78 463.46 570.58 C 469.00 589.95 474.39 609.37 480.45 628.58 C 484.85 639.71 489.21 650.86 494.21 661.73 C 497.28 669.58 501.84 676.69 506.04 683.96 C 514.52 696.54 523.57 708.89 534.75 719.24 C 544.12 729.46 555.52 737.53 567.34 744.65 C 584.80 755.19 604.36 762.06 624.41 765.57 C 634.49 767.46 644.73 768.47 655.00 767.99 C 682.93 769.11 710.91 763.28 736.72 752.74 C 761.86 742.17 785.46 726.57 802.28 704.83 C 794.61 706.54 789.26 712.88 782.58 716.57 C 775.83 720.25 768.88 723.55 761.99 726.96 C 751.21 731.90 739.44 734.18 727.75 735.70 C 722.80 735.97 717.86 736.22 712.95 736.84 C 708.29 736.58 703.66 735.79 698.97 735.90 C 682.20 734.49 665.82 729.62 650.64 722.40 C 631.57 713.79 615.21 700.14 601.43 684.57 C 582.23 662.31 568.83 635.63 558.92 608.11 C 552.66 590.08 546.97 571.86 541.46 553.58 C 535.48 532.35 528.49 511.42 522.84 490.09 C 518.69 489.86 514.52 489.79 510.41 490.44 Z"/>
    </g>
    <g id="#3388ffff">
        <path fill="#3388ff" opacity="1.00"
              d=" M 390.85 265.84 C 398.86 259.88 408.98 256.47 419.00 256.96 C 423.60 257.09 428.22 256.67 432.80 257.25 C 439.75 258.39 445.33 263.06 450.55 267.46 C 455.48 272.35 459.96 277.87 462.68 284.32 C 466.49 293.11 468.27 302.59 471.31 311.64 C 484.39 357.43 497.56 403.18 511.23 448.79 C 512.86 454.45 514.85 460.00 516.09 465.76 C 504.85 467.88 493.36 467.66 482.02 468.94 C 468.25 469.22 454.86 473.96 441.03 472.97 C 439.64 473.04 438.23 472.45 438.10 470.90 C 432.12 450.67 425.69 430.58 419.61 410.38 C 416.67 401.63 414.05 392.77 411.64 383.86 C 403.29 402.61 394.45 421.13 385.68 439.67 C 379.11 452.01 373.83 464.96 367.33 477.33 C 364.44 483.01 362.12 490.40 355.16 492.18 C 342.25 495.67 329.89 500.84 317.29 505.26 C 303.41 509.88 290.80 517.39 277.67 523.67 C 270.24 527.24 263.09 531.46 255.23 534.04 C 254.78 533.01 254.37 531.97 253.98 530.94 C 261.51 517.85 267.80 504.11 274.66 490.67 C 281.48 476.83 288.66 463.16 295.21 449.20 C 307.17 425.71 319.23 402.24 330.32 378.33 C 334.06 369.89 339.60 362.35 342.56 353.57 C 346.34 345.18 351.57 337.49 354.84 328.86 C 359.79 317.70 365.70 306.99 370.99 296.00 C 375.79 284.96 381.51 273.75 390.85 265.84 Z"/>
        <path fill="#3388ff" opacity="1.00"
              d=" M 588.06 459.06 C 596.39 458.76 604.76 459.57 613.03 458.15 C 623.00 457.88 633.00 457.88 642.97 458.15 C 650.90 459.53 658.95 458.79 666.95 459.06 C 667.11 479.38 666.90 499.70 667.04 520.01 C 667.09 524.70 665.91 529.30 665.96 533.99 C 666.05 556.32 665.98 578.66 666.00 601.00 C 665.67 609.12 666.47 617.23 667.75 625.24 C 670.06 634.53 675.26 643.23 682.87 649.13 C 701.18 661.48 728.02 659.43 743.77 643.76 C 751.26 635.80 753.42 624.58 753.99 614.03 C 754.05 562.37 753.92 510.70 754.05 459.04 C 760.71 459.23 767.35 458.82 773.96 458.01 C 785.63 458.06 797.31 457.79 808.97 458.15 C 816.90 459.53 824.95 458.79 832.95 459.06 C 833.07 503.71 832.96 548.36 833.00 593.00 C 832.82 600.14 833.53 607.32 832.44 614.41 C 831.59 619.72 832.42 625.13 831.49 630.43 C 828.88 647.64 823.08 664.63 812.82 678.82 C 802.36 692.81 788.42 704.38 772.29 711.26 C 759.46 716.79 745.76 720.23 731.88 721.79 C 723.26 722.35 714.61 722.19 705.98 721.92 C 657.12 717.74 612.43 682.98 596.38 636.64 C 590.87 620.32 589.01 603.11 587.96 586.01 C 588.09 543.69 587.89 501.37 588.06 459.06 Z"/>
        <path fill="#3388ff" opacity="1.00"
              d=" M 510.41 490.44 C 514.52 489.79 518.69 489.86 522.84 490.09 C 528.49 511.42 535.48 532.35 541.46 553.58 C 546.97 571.86 552.66 590.08 558.92 608.11 C 568.83 635.63 582.23 662.31 601.43 684.57 C 615.21 700.14 631.57 713.79 650.64 722.40 C 665.82 729.62 682.20 734.49 698.97 735.90 C 703.66 735.79 708.29 736.58 712.95 736.84 C 717.86 736.22 722.80 735.97 727.75 735.70 C 739.44 734.18 751.21 731.90 761.99 726.96 C 768.88 723.55 775.83 720.25 782.58 716.57 C 789.26 712.88 794.61 706.54 802.28 704.83 C 785.46 726.57 761.86 742.17 736.72 752.74 C 710.91 763.28 682.93 769.11 655.00 767.99 C 644.73 768.47 634.49 767.46 624.41 765.57 C 604.36 762.06 584.80 755.19 567.34 744.65 C 555.52 737.53 544.12 729.46 534.75 719.24 C 523.57 708.89 514.52 696.54 506.04 683.96 C 501.84 676.69 497.28 669.58 494.21 661.73 C 489.21 650.86 484.85 639.71 480.45 628.58 C 474.39 609.37 469.00 589.95 463.46 570.58 C 459.21 554.78 454.83 538.99 451.70 522.91 C 440.10 524.59 429.21 529.22 418.29 533.28 C 393.24 543.40 368.75 555.62 347.57 572.58 C 341.11 577.04 335.91 582.92 329.94 587.95 C 318.92 599.10 309.02 611.86 303.94 626.87 C 300.33 636.99 298.98 647.95 300.41 658.61 C 302.38 666.65 307.23 674.28 314.44 678.57 C 321.14 682.72 329.09 684.80 336.94 684.91 C 356.51 683.06 375.25 674.81 390.44 662.43 C 396.35 657.36 402.74 652.72 407.37 646.37 C 415.35 638.14 422.21 628.90 428.09 619.08 C 432.64 611.74 435.70 603.60 440.24 596.26 C 440.87 595.10 441.97 594.37 443.01 593.63 C 441.55 602.20 439.47 610.67 437.02 619.00 C 432.52 633.83 427.53 648.57 420.34 662.34 C 412.02 680.04 400.89 696.36 388.18 711.19 C 382.18 717.52 375.87 723.54 369.75 729.75 C 356.95 741.28 342.02 750.31 326.28 757.25 C 313.48 762.91 299.70 765.92 285.89 767.81 C 281.27 768.24 276.63 767.93 272.00 768.04 C 262.25 768.34 252.74 765.56 243.62 762.41 C 220.52 755.14 202.90 735.10 195.62 712.37 C 193.02 702.81 191.39 692.93 192.00 683.00 C 191.12 667.39 194.55 651.80 200.35 637.37 C 207.87 616.80 220.51 598.36 235.61 582.62 C 239.34 577.68 244.65 574.34 248.77 569.77 C 264.27 556.28 281.96 545.44 300.34 536.33 C 326.44 522.60 354.59 513.13 383.20 506.20 C 417.10 498.07 451.84 493.78 486.58 491.55 C 494.47 490.19 502.52 491.81 510.41 490.44 Z"/>
    </g>
</svg>
