<svg id="Layer_1" data-name="Layer 1" xmlns="http://www.w3.org/2000/svg" width="8.19444in" height="8.19444in" viewBox="0 0 590 590">
  <defs>
    <style>
      .cls-1 {
        fill: #38f;
      }
    </style>
  </defs>
  <g>
    <path class="cls-1" d="M215.24,190.12c-11.96,27.38-25.39,54.07-38.31,81-2.51,6.67-10.73,6.21-16.26,8.57-12.38,4.9-25.33,8.53-37.15,14.76-10.74,5.31-21.32,10.94-32.31,15.74-.14-.55-.44-1.65-.59-2.2,8.67-15.41,15.63-31.71,24.17-47.2,11.95-25.76,25.67-50.66,37.56-76.46,2.3-5.21,5.85-9.8,7.79-15.19,2.17-6.11,6.09-11.36,8.67-17.28,3.99-9.15,8.17-18.21,12.98-26.96,5.67-12.11,11.42-26.11,24.77-31.42,10.02-3.39,21.44-4.81,31.39-.37a42.95126,42.95126,0,0,1,19.97,26.02c13.26,45.66,26.16,91.43,40.02,136.94-11.56,1.51-23.26,1.51-34.81,3.07-8.6.8-17.18,3.18-25.84,2.58"/>
    <path class="cls-1" d="M356.23,251.31q30.705-.78,61.45.02c.57,41.18-1.85,82.37-.39,123.55.3,11.92,6.14,24.14,17.03,29.77,16.5,8.14,40.12,4.22,49.48-12.78,5.03-10.82,3.76-23.31,4.28-34.87-.58-35.33.1-70.66-.06-105.99,20.55.03,41.11-.27,61.67.26.32,41.24,1.02,82.51-.56,123.73a91.37373,91.37373,0,0,1-10.57,42.61c-6.5,11.95-16.65,21.58-27.99,28.9-27.33,14.96-61.72,17.87-90.55,5.46-23.11-9.24-42.26-27.5-53.34-49.71-9.82-20.91-11.16-44.51-10.73-67.26C356.18,307.1,355.67,279.2,356.23,251.31Z"/>
    <path class="cls-1" d="M220.36,283.31a555.9935,555.9935,0,0,1,83.09-7.04c4.09,16.81,10.05,33.08,14.42,49.81,7.98,24.97,14.81,50.56,27.28,73.79,14.13,26.83,35.76,51.14,64.34,62.78a111.89021,111.89021,0,0,0,68.65,6.59c11.18-2.19,21.37-7.39,31.23-12.85,5.16-2.99,9.65-7.05,15.05-9.63-13.54,17.64-33.11,29.91-53.53,38.13-41.51,16.19-91.04,16.11-130.16-6.6-21.69-11.9-38.69-30.64-51.63-51.45-8.12-13.41-13.29-28.23-19.19-42.67-8.12-27.55-16.45-55.1-22.6-83.17-12.24,2.4-23.83,7.22-35.29,12.04-24.26,10.24-47.15,24.47-65.37,43.63-11.26,12.1-20.08,27.51-20.55,44.41-1.69,12.37,6.98,24.72,18.93,27.86,7.71,2.96,16.16,1.86,23.85-.54,23.88-6.35,42.34-24.61,56.19-44.28,5.84-8.04,8.99-17.66,14.66-25.79-7.21,37.02-23.3,73.24-50.42,99.98a126.72942,126.72942,0,0,1-46.91,31.18c-18.35,6.14-39.02,9.77-57.71,2.87-22.12-5.81-38.99-26.13-42.37-48.52a93.81963,93.81963,0,0,1,5.82-51.73c8.69-23.06,25.02-42.57,44.06-57.91C129.5,306.21,174.74,290.9,220.36,283.31Z"/>
  </g>
</svg>
